<svg width="205" height="40" viewBox="0 0 205 40" fill="none" xmlns="http://www.w3.org/2000/svg">
<g clip-path="url(#clip0_58_24)">
<path d="M12.4099 13.23L34.3899 0.970001L56.3199 13.23L34.3899 25.5L12.4099 13.23Z" fill="white"/>
<path d="M34.3699 28.17L54.0099 17.86L56.3199 19.99L34.3899 32.34L12.4099 20.08L14.9899 17.86L34.3699 28.17Z" fill="white"/>
<path d="M34.3699 34.79L54.0099 24.48L56.3199 26.61L34.3899 38.97L12.4099 26.7L14.9899 24.48L34.3699 34.79Z" fill="white"/>
<path d="M75.5866 10.8064V24.8064H72.3466V19.0664H65.9866V24.8064H62.7466V10.8064H65.9866V16.3264H72.3466V10.8064H75.5866ZM79.0942 10.8064H82.3142V19.9264L88.9942 10.8064H92.0342V24.8064H88.8342V15.7064L82.1542 24.8064H79.0942V10.8064ZM108.22 19.1664H106.18V24.8064H103V19.1664H100.92L97.78 24.8064H94.04L98.24 17.4864L94.3 10.8064H97.72L100.86 16.4664H103V10.8064H106.18V16.4664H108.26L111.42 10.8064H114.84L110.92 17.4864L115.1 24.8064H111.36L108.22 19.1664ZM122.073 19.1664H119.833V24.8064H116.613V10.8064H119.833V16.4664H122.153L125.833 10.8064H129.253L124.673 17.5664L129.393 24.8064H125.713L122.073 19.1664ZM140.117 21.8064H133.617L132.377 24.8064H129.057L135.297 10.8064H138.497L144.757 24.8064H141.357L140.117 21.8064ZM139.097 19.3464L136.877 13.9864L134.657 19.3464H139.097ZM152.674 10.8064C153.914 10.8064 154.987 11.0131 155.894 11.4264C156.814 11.8397 157.52 12.4264 158.014 13.1864C158.507 13.9464 158.754 14.8464 158.754 15.8864C158.754 16.9131 158.507 17.8131 158.014 18.5864C157.52 19.3464 156.814 19.9331 155.894 20.3464C154.987 20.7464 153.914 20.9464 152.674 20.9464H149.854V24.8064H146.614V10.8064H152.674ZM152.494 18.3064C153.467 18.3064 154.207 18.0997 154.714 17.6864C155.22 17.2597 155.474 16.6597 155.474 15.8864C155.474 15.0997 155.22 14.4997 154.714 14.0864C154.207 13.6597 153.467 13.4464 152.494 13.4464H149.854V18.3064H152.494ZM171.2 13.4464H166.72V24.8064H163.52V13.4464H159.06V10.8064H171.2V13.4464ZM179.72 25.0464C178.266 25.0464 176.953 24.7331 175.78 24.1064C174.62 23.4797 173.706 22.6197 173.04 21.5264C172.386 20.4197 172.06 19.1797 172.06 17.8064C172.06 16.4331 172.386 15.1997 173.04 14.1064C173.706 12.9997 174.62 12.1331 175.78 11.5064C176.953 10.8797 178.266 10.5664 179.72 10.5664C181.173 10.5664 182.48 10.8797 183.64 11.5064C184.8 12.1331 185.713 12.9997 186.38 14.1064C187.046 15.1997 187.38 16.4331 187.38 17.8064C187.38 19.1797 187.046 20.4197 186.38 21.5264C185.713 22.6197 184.8 23.4797 183.64 24.1064C182.48 24.7331 181.173 25.0464 179.72 25.0464ZM179.72 22.2864C180.546 22.2864 181.293 22.0997 181.96 21.7264C182.626 21.3397 183.146 20.8064 183.52 20.1264C183.906 19.4464 184.1 18.6731 184.1 17.8064C184.1 16.9397 183.906 16.1664 183.52 15.4864C183.146 14.8064 182.626 14.2797 181.96 13.9064C181.293 13.5197 180.546 13.3264 179.72 13.3264C178.893 13.3264 178.146 13.5197 177.48 13.9064C176.813 14.2797 176.286 14.8064 175.9 15.4864C175.526 16.1664 175.34 16.9397 175.34 17.8064C175.34 18.6731 175.526 19.4464 175.9 20.1264C176.286 20.8064 176.813 21.3397 177.48 21.7264C178.146 22.0997 178.893 22.2864 179.72 22.2864ZM202.715 10.8064V24.8064H199.475V19.0664H193.115V24.8064H189.875V10.8064H193.115V16.3264H199.475V10.8064H202.715Z" fill="white"/>
</g>
<defs>
<clipPath id="clip0_58_24">
<rect width="205" height="40" fill="white"/>
</clipPath>
</defs>
</svg>
